<svg width="199" height="199" viewBox="0 0 199 199" fill="none" xmlns="http://www.w3.org/2000/svg">
<circle cx="99.5" cy="99.5" r="99.5" fill="#E6E6E6"/>
<g clip-path="url(#clip0_10_42)">
<path d="M153.09 132.005L131.934 76.1017C131.641 75.3308 131.2 74.6251 130.634 74.0249C130.069 73.4247 129.391 72.9417 128.639 72.6036C127.887 72.2655 127.076 72.0788 126.251 72.0543C125.427 72.0297 124.606 72.1678 123.836 72.4606L113.917 76.1958V66.9989C113.917 65.4005 113.282 63.8676 112.151 62.7374C111.021 61.6072 109.488 60.9722 107.89 60.9722H91.9444V54.4433C91.9444 52.845 91.3095 51.3121 90.1793 50.1818C89.049 49.0516 87.5161 48.4167 85.9178 48.4167H63.6944C62.0295 48.4167 60.4327 49.0781 59.2554 50.2554C58.0781 51.4327 57.4167 53.0295 57.4167 54.6944V139.444C57.4167 140.277 57.7474 141.075 58.336 141.664C58.9247 142.253 59.7231 142.583 60.5555 142.583H110.778C111.61 142.583 112.409 142.253 112.997 141.664C113.586 141.075 113.917 140.277 113.917 139.444V99.4864L129.611 140.951C129.757 141.337 129.978 141.689 130.261 141.99C130.544 142.29 130.883 142.531 131.259 142.7C131.635 142.869 132.04 142.963 132.452 142.975C132.864 142.987 133.275 142.918 133.66 142.772L151.269 136.054C151.655 135.908 152.008 135.687 152.308 135.405C152.608 135.122 152.849 134.783 153.018 134.407C153.188 134.031 153.281 133.625 153.293 133.213C153.305 132.801 153.236 132.391 153.09 132.005ZM85.6667 66.7164V136.306H63.6944V54.6944H85.6667V66.7164ZM107.639 136.306H91.9444V67.25H107.639V136.306ZM134.351 135.521L114.325 82.6933L126.064 78.2361L146.122 131.064L134.351 135.521Z" fill="#212121"/>
</g>
<defs>
<clipPath id="clip0_10_42">
<rect width="113" height="113" fill="white" transform="translate(48 39)"/>
</clipPath>
</defs>
</svg>
