<svg width="47" height="47" viewBox="0 0 47 47" fill="none" xmlns="http://www.w3.org/2000/svg">
<path d="M42.2853 21.6457L15.8331 5.46925C15.4989 5.26192 15.115 5.14857 14.7217 5.14114C14.3285 5.13371 13.9406 5.23247 13.5988 5.42702C13.2594 5.61349 12.9768 5.88814 12.7806 6.22196C12.5845 6.55577 12.4821 6.93637 12.4843 7.32354V39.6764C12.4821 40.0636 12.5845 40.4442 12.7806 40.778C12.9768 41.1118 13.2594 41.3865 13.5988 41.573C13.9406 41.7675 14.3285 41.8663 14.7217 41.8588C15.115 41.8514 15.4989 41.7381 15.8331 41.5307L42.2853 25.3543C42.6037 25.1607 42.8668 24.8885 43.0495 24.5637C43.2321 24.2389 43.3281 23.8726 43.3281 23.5C43.3281 23.1274 43.2321 22.7611 43.0495 22.4363C42.8668 22.1115 42.6037 21.8393 42.2853 21.6457ZM41.5179 24.1003L15.0657 40.2786C14.9537 40.3474 14.8253 40.3849 14.6938 40.3872C14.5624 40.3895 14.4328 40.3564 14.3185 40.2915C14.207 40.2322 14.1138 40.1436 14.0491 40.0351C13.9844 39.9267 13.9505 39.8027 13.9513 39.6764V7.32354C13.9505 7.19729 13.9844 7.07324 14.0491 6.96483C14.1138 6.85642 14.207 6.76778 14.3185 6.7085C14.4328 6.64357 14.5624 6.61051 14.6938 6.61277C14.8253 6.61503 14.9537 6.65253 15.0657 6.72136L41.5179 22.8996C41.6221 22.9614 41.7085 23.0492 41.7686 23.1545C41.8286 23.2597 41.8601 23.3788 41.8601 23.5C41.8601 23.6212 41.8286 23.7403 41.7686 23.8455C41.7085 23.9508 41.6221 24.0386 41.5179 24.1003Z" fill="#E6E6E6"/>
</svg>
