<svg width="199" height="199" viewBox="0 0 199 199" fill="none" xmlns="http://www.w3.org/2000/svg">
<circle cx="99.5" cy="99.5" r="99.5" fill="#E6E6E6"/>
<path d="M139.732 143.328L106.074 109.67C103.386 111.959 100.296 113.731 96.8018 114.985C93.308 116.24 89.7963 116.867 86.2668 116.867C77.6596 116.867 70.3747 113.887 64.412 107.928C58.4493 101.965 55.468 94.6822 55.468 86.0786C55.468 77.475 58.4458 70.1883 64.4013 64.2185C70.3603 58.2451 77.6417 55.2584 86.2453 55.2584C94.8524 55.2584 102.141 58.2397 108.111 64.2024C114.081 70.165 117.065 77.4518 117.065 86.0625C117.065 89.7963 116.404 93.4101 115.082 96.9039C113.756 100.398 112.018 103.386 109.868 105.869L143.527 139.522L139.732 143.328ZM86.2668 111.486C93.3976 111.486 99.4194 109.032 104.332 104.123C109.241 99.2133 111.696 93.1915 111.696 86.0571C111.696 78.9263 109.241 72.9063 104.332 67.9971C99.423 63.088 93.403 60.6334 86.2721 60.6334C79.1413 60.6334 73.1195 63.088 68.2068 67.9971C63.2976 72.9063 60.843 78.9263 60.843 86.0571C60.843 93.188 63.2976 99.208 68.2068 104.117C73.1159 109.026 79.1359 111.486 86.2668 111.486Z" fill="#212121"/>
</svg>
